<?xml version="1.0" encoding="UTF-8"?>
<svg id="Layer_1" data-name="Layer 1" xmlns="http://www.w3.org/2000/svg" viewBox="0 0 702.82 794.97">
  <defs>
    <style>
      .cls-1 {
        fill: #fff;
      }
    </style>
  </defs>
  <path class="cls-1" d="M284.53,773.12c9.74-14.93,18.96-29.28,28.54-43.37,.91-1.33,4.27-1.85,6.24-1.46,10.53,2.07,21.12,4.09,31.44,6.99,14.66,4.11,28.78,3.89,43.88,.71,58.88-12.4,113.68-33.83,162.97-68.77,24.66-17.48,47.03-37.31,66.59-60.43,17.2-20.33,24.45-44.52,28.54-70.05,5.26-32.83,6.45-65.94,5.05-99.07-2.98-70.57-11.44-140.23-36.62-206.93-21.72-57.53-56.61-105.87-101.82-147.07-16.97-15.46-37.66-22.26-59.91-25.73-32.5-5.06-65.2-5.05-97.85-3.73-69.61,2.8-136.45,17.09-197.94,51.31-32.54,18.11-60.52,41.73-83.69,71.04-13.63,17.25-19.37,37.46-22.99,58.47-5.16,29.95-6.47,60.23-5.21,90.5,4.13,99.6,29.02,192.81,86.86,275.52,13.41,19.18,30.04,35.37,47.45,50.94,13.17,11.78,28.2,13.87,44.63,12.36,41.85-3.85,83.12-10.9,123.58-22.33,56.57-15.99,110.01-38.71,156.99-74.78,36.03-27.67,64.37-61.61,84.33-102.71,5.85-12.04,3.13-22.86,.45-34.22-14.75-62.56-35.81-122.67-70.33-177.36-27.62-43.76-62.89-79.5-108.73-104.61-17.06-9.35-33.07-12.29-52.21-6.21-53.02,16.84-103.67,38.25-148.51,71.67-32.32,24.09-58.31,53.77-75.04,90.75-2.54,5.62-3.02,12.85-2.4,19.14,7.26,72.95,29.67,140.18,78.23,196.53,28.08,32.58,62.93,55.34,105.27,65.59,6.26,1.51,11.72,1,17.47-2.46,39.2-23.56,76.66-49.45,108.87-82.15,25.92-26.32,47.48-55.57,57.01-92.14,5.72-21.95,6.24-44.17,3.19-66.5-.48-3.49-2.17-7.33-4.48-9.98-27.65-31.86-58.5-59.9-96.21-79.64-18.78-9.83-38.65-16.28-59.77-17.88-14.53-1.1-27.78,1.39-38.66,13.38-19.75,21.77-40.61,42.57-55.84,67.99-16.14,26.95-23.99,56.09-21.78,87.62,.2,2.92,1.13,6.16,2.75,8.56,22.27,32.85,51.3,56.46,90.52,66.35,14.88,3.75,29.96,4.68,45,3.32,11.36-1.03,19.68-9.24,27.88-16.39,19.75-17.2,32.31-38.55,37.6-64.51,8.55-41.97-19.71-80.19-62.38-81.82-28.08-1.08-56.72,16.95-61.72,47.08-3.67,22.13,13.8,44.69,34.58,43.43,8.37-.51,15.02-4.29,18.31-11.82,3.22-7.35,.36-14.13-5.13-19.68-3.76-3.8-8.35-7.58-4.74-13.49,3.48-5.68,9.39-6.65,15.61-5.62,18.35,3.05,29.89,21.05,26.2,40.37-5.72,30-31.82,43.1-57.07,41.12-11.75-.92-23.39-4.79-34.79-8.26-14.83-4.51-20.54-16.12-22.5-30.67-5.29-39.12,8.84-73.04,28.01-105.54,1.73-2.94,6.11-5.2,9.67-6.04,48.42-11.48,91.69,.73,131.08,29.46,8.17,5.96,8.73,15.92,10.45,24.75,9.03,46.47-4.12,87.76-30.53,125.65-15.22,21.84-34.79,39.18-56.24,54.85-15.94,11.64-32.08,8.83-48.8,4.2-32.92-9.12-59.58-28.22-82.08-53.23-25.3-28.11-43.85-60.31-56.3-96.11-4.65-13.37-3.87-25.79,1.53-38.67,10.87-25.94,25.53-49.21,44.96-69.67,32-33.69,69.43-60.2,108.94-84.11,7.85-4.75,15.6-2.7,23.48-.83,29.42,6.98,54.13,22.83,77.35,41.39,49.59,39.63,83.7,90.81,110.39,147.62,5.04,10.73,2.7,20.97,.22,31.33-10.03,41.82-31.97,76.83-62.42,106.67-40.97,40.14-89.59,68.54-142.38,89.8-22.77,9.17-46.59,15.72-70,23.27-6.47,2.09-12.75,1.26-19.05-1.85-34.49-17.07-61.23-42.96-83.56-73.65-34.76-47.76-55.54-101.59-67.29-159.1-7.21-35.28-9.92-71-10.96-107.02-.75-25.97,8.81-46.06,25.66-64.96,48.05-53.87,108.68-85.72,177.31-104.11,37.25-9.98,75.17-15.53,113.76-17.65,18.51-1.01,33.69,4.29,48.2,14.89,58.62,42.8,99.35,98.67,123.19,167.06,14.4,41.31,24.32,83.68,30.58,126.97,4.87,33.68,8.31,67.45,7.53,101.5-.15,6.51-1.78,13.52-4.68,19.33-9.21,18.44-22.9,33.64-37.54,47.92-53.21,51.93-117.91,82.88-188.56,102.84-34.95,9.87-70.48,17.06-106.7,19.72-28.85,2.12-57.82,2.58-86.72,4.06-27.62,1.42-49.19-11.33-68.97-28.61-64.84-56.66-103.59-128.2-121.14-211.92C2.27,422.1-1.05,381.55,.29,340.68c2.05-62.63,12.6-123.52,42.75-179.35C83.33,86.74,145.39,38.94,226.65,15.93,276.62,1.78,327.65-2.15,379.43,1.04c42.16,2.6,83.51,9.21,122.31,26.23,94.17,41.31,155.12,112.17,183.89,210.72,7.91,27.11,13.3,54.82,14.52,83.07,1.44,33.31,3.43,66.72,2.37,100-1.98,62.48-13.05,123.35-41.18,179.95-35.98,72.39-93.4,122.04-166.61,154.25-40.37,17.76-82.81,26.85-126.97,24.99-27.35-1.15-54.59-4.59-83.24-7.12Z"/>
</svg>